#!OML:ASF F:\VICON\USERDATA\INSTALL\rory3\rory3.ASF
:FULLY-SPECIFIED
:DEGREES
1682
root -1.69311 16.1415 -2.93454 158.154 141.522 167.37
lowerback 20.2452 2.58172 -7.63284
upperback 10.1041 2.38949 1.81921
thorax -0.654036 1.00877 5.79403
lowerneck -17.5116 -0.107946 -10.761
upperneck 32.709 3.22519 2.02544
head 13.9213 0.448048 3.24352
rclavicle 1.86858e-014 5.24792e-014
rhumerus -34.8946 3.68158 -79.8147
rradius 46.0917
rwrist 18.9647
rhand -26.204 4.18098
rfingers 7.12502
rthumb 0.348717 -25.7985
lclavicle 1.86858e-014 5.24792e-014
lhumerus -49.4325 -19.544 95.2534
lradius 62.9997
lwrist 6.52646
lhand -47.7773 39.9887
lfingers 7.12502
lthumb -20.4544 68.9313
rfemur -32.8426 -12.2739 15.6987
rtibia 70.9269
rfoot 24.3429 3.15978
rtoes 26.8189
lfemur -82.8109 50.3219 -12.2246
ltibia 136.955
lfoot -16.601 -20.636
ltoes -20.2657
1683
root -1.67611 16.1197 -2.94605 157.771 141.778 167.131
lowerback 20.8844 2.76732 -7.18241
upperback 9.71345 2.6312 1.5858
thorax -1.4244 1.18589 5.20612
lowerneck -16.9154 -0.203161 -10.5775
upperneck 32.8172 2.90481 2.19528
head 13.8578 0.359469 3.22358
rclavicle -1.90833e-014 2.06736e-014
rhumerus -35.6933 2.85016 -80.0201
rradius 46.2204
rwrist 19.146
rhand -26.2152 4.02806
rfingers 7.12502
rthumb 0.337881 -25.9514
lclavicle -1.90833e-014 2.06736e-014
lhumerus -50.3832 -20.4366 95.5389
lradius 63.1534
lwrist 6.84986
lhand -47.8615 39.8186
lfingers 7.12502
lthumb -20.5353 68.7525
rfemur -33.7197 -12.9219 16.055
rtibia 72.1428
rfoot 24.9743 2.20772
rtoes 26.9803
lfemur -82.5811 50.926 -11.8076
ltibia 137.187
lfoot -17.1934 -20.4844
ltoes -20.0598
1684
root -1.66068 16.104 -2.96043 157.389 142.078 166.801
lowerback 21.1714 2.86676 -6.9374
upperback 9.58839 2.77604 1.56214
thorax -1.71946 1.2778 4.9965
lowerneck -16.8213 -0.296361 -10.6922
upperneck 32.9061 2.76048 2.31657
head 13.8841 0.29709 3.27094
rclavicle -9.93923e-015 9.54166e-015
rhumerus -35.9268 2.47664 -80.006
rradius 46.2882
rwrist 19.42
rhand -26.1672 4.1603
rfingers 7.12502
rthumb 0.384237 -25.8191
lclavicle -9.93923e-015 9.54166e-015
lhumerus -50.8336 -20.9063 95.8361
lradius 63.2555
lwrist 7.14937
lhand -48.0761 40.5501
lfingers 7.12502
lthumb -20.7416 69.4616
rfemur -34.6382 -13.4525 16.5841
rtibia 73.3896
rfoot 25.1069 0.696298
rtoes 28.4287
lfemur -82.4576 51.5278 -11.3986
ltibia 137.386
lfoot -17.6196 -20.2112
ltoes -19.997
1685
root -1.64336 16.0995 -2.9806 157.285 142.238 166.766
lowerback 21.1104 2.91738 -7.13167
upperback 9.64502 2.81313 1.58413
thorax -1.63726 1.2862 5.12557
lowerneck -16.9188 -0.331365 -10.7357
upperneck 32.8433 2.77588 2.18602
head 13.8819 0.280935 3.22736
rclavicle 3.81667e-014 -1.59028e-014
rhumerus -35.7353 2.50356 -79.8907
rradius 46.3009
rwrist 19.5229
rhand -26.2978 4.28437
rfingers 7.12502
rthumb 0.258145 -25.6952
lclavicle 3.81667e-014 -1.59028e-014
lhumerus -50.9553 -21.0562 96.086
lradius 63.4036
lwrist 7.25804
lhand -48.304 42.1123
lfingers 7.12502
lthumb -20.9605 70.9998
rfemur -35.6542 -14.0276 16.8634
rtibia 74.6691
rfoot 24.8381 -1.22151
rtoes 29.0739
lfemur -82.3912 51.7654 -11.4866
ltibia 137.511
lfoot -17.8728 -19.6818
ltoes -20.2592
1686
root -1.62364 16.0958 -2.99942 157.075 142.404 166.673
lowerback 21.0165 2.84411 -7.26935
upperback 9.79077 2.70551 1.53789
thorax -1.41604 1.21861 5.18497
lowerneck -17.0832 -0.221978 -10.617
upperneck 32.7051 2.95439 2.03807
head 13.8475 0.354354 3.17322
rclavicle -2.66371e-014 4.77083e-015
rhumerus -35.3374 2.67554 -80.0196
rradius 46.1982
rwrist 19.5853
rhand -26.6767 4.4658
rfingers 7.12502
rthumb -0.10779 -25.5139
lclavicle -2.66371e-014 4.77083e-015
lhumerus -50.931 -21.0277 96.0861
lradius 63.5817
lwrist 7.24106
lhand -48.3679 42.9794
lfingers 7.12502
lthumb -21.0218 71.8601
rfemur -36.574 -14.6791 17.2295
rtibia 75.9749
rfoot 24.1978 -3.17839
rtoes 28.2624
lfemur -82.1994 52.0774 -11.4401
ltibia 137.635
lfoot -18.1724 -19.1405
ltoes -20.6195
